<svg xmlns="http://www.w3.org/2000/svg" width="1600" height="760" viewBox="0 0 1600 760" preserveAspectRatio="xMidYMid slice">
  <defs>
    <radialGradient id="sky" cx="50%" cy="0%" r="120%">
      <stop offset="0%" stop-color="#1A2030"/><stop offset="42%" stop-color="#241C2A"/><stop offset="82%" stop-color="#0E1512"/>
    </radialGradient>
    <radialGradient id="glow" cx="50%" cy="100%" r="70%">
      <stop offset="0%" stop-color="#E6A12B"/><stop offset="26%" stop-color="#CE4A2B"/>
      <stop offset="52%" stop-color="#A6371C" stop-opacity="0.5"/><stop offset="75%" stop-color="#A6371C" stop-opacity="0"/>
    </radialGradient>
    <radialGradient id="sun" cx="50%" cy="50%" r="50%">
      <stop offset="0%" stop-color="#FFEFC6"/><stop offset="45%" stop-color="#E6A12B"/><stop offset="100%" stop-color="#CE4A2B"/>
    </radialGradient>
    <linearGradient id="vig" x1="0" y1="0" x2="0" y2="1">
      <stop offset="50%" stop-color="#0E1512" stop-opacity="0"/><stop offset="100%" stop-color="#070908" stop-opacity="0.55"/>
    </linearGradient>
    <filter id="soft" x="-30%" y="-30%" width="160%" height="160%"><feGaussianBlur stdDeviation="30"/></filter>
  </defs>

  <rect width="1600" height="760" fill="url(#sky)"/>
  <g><circle cx="1136.0" cy="356.4" r="1.87" fill="#F4EEE3" opacity="0.67"/>
<circle cx="361.9" cy="108.9" r="1.0" fill="#E6A12B" opacity="0.42"/>
<circle cx="446.8" cy="108.6" r="1.03" fill="#F4EEE3" opacity="0.85"/>
<circle cx="1039.8" cy="279.1" r="0.92" fill="#F4EEE3" opacity="0.5"/>
<circle cx="131.2" cy="342.0" r="0.73" fill="#F4EEE3" opacity="0.68"/>
<circle cx="1162.9" cy="143.2" r="1.79" fill="#F4EEE3" opacity="0.35"/>
<circle cx="406.6" cy="259.0" r="1.89" fill="#F4EEE3" opacity="0.37"/>
<circle cx="1007.8" cy="364.3" r="1.91" fill="#F4EEE3" opacity="0.4"/>
<circle cx="897.6" cy="398.3" r="1.54" fill="#F4EEE3" opacity="0.32"/>
<circle cx="969.6" cy="331.2" r="1.89" fill="#F4EEE3" opacity="0.34"/>
<circle cx="1525.2" cy="210.9" r="1.68" fill="#F4EEE3" opacity="0.84"/>
<circle cx="1384.1" cy="69.8" r="1.92" fill="#F4EEE3" opacity="0.83"/>
<circle cx="1262.3" cy="111.1" r="1.06" fill="#F4EEE3" opacity="0.46"/>
<circle cx="216.7" cy="336.2" r="1.65" fill="#F4EEE3" opacity="0.84"/>
<circle cx="1155.8" cy="31.6" r="1.54" fill="#CE4A2B" opacity="0.72"/>
<circle cx="1418.0" cy="53.2" r="1.01" fill="#F4EEE3" opacity="0.78"/>
<circle cx="415.5" cy="355.7" r="1.95" fill="#F4EEE3" opacity="0.46"/>
<circle cx="346.0" cy="318.8" r="0.53" fill="#F4EEE3" opacity="0.64"/>
<circle cx="1569.9" cy="192.4" r="1.88" fill="#F4EEE3" opacity="0.75"/>
<circle cx="655.2" cy="304.2" r="1.2" fill="#F4EEE3" opacity="0.34"/>
<circle cx="688.1" cy="127.2" r="0.52" fill="#F4EEE3" opacity="0.65"/>
<circle cx="251.5" cy="144.2" r="0.78" fill="#F4EEE3" opacity="0.41"/>
<circle cx="1068.8" cy="216.9" r="1.04" fill="#F4EEE3" opacity="0.54"/>
<circle cx="715.4" cy="330.8" r="1.63" fill="#F4EEE3" opacity="0.79"/>
<circle cx="796.1" cy="363.1" r="0.85" fill="#E6A12B" opacity="0.43"/>
<circle cx="189.9" cy="128.5" r="1.58" fill="#F4EEE3" opacity="0.5"/>
<circle cx="561.2" cy="125.6" r="0.99" fill="#F4EEE3" opacity="0.5"/>
<circle cx="136.9" cy="44.9" r="0.71" fill="#E6A12B" opacity="0.84"/>
<circle cx="1351.8" cy="74.2" r="1.45" fill="#F4EEE3" opacity="0.88"/>
<circle cx="358.8" cy="385.6" r="1.72" fill="#CE4A2B" opacity="0.46"/>
<circle cx="7.4" cy="63.7" r="1.98" fill="#F4EEE3" opacity="0.5"/>
<circle cx="1487.7" cy="88.8" r="0.77" fill="#E6A12B" opacity="0.52"/>
<circle cx="241.6" cy="306.6" r="0.95" fill="#F4EEE3" opacity="0.69"/>
<circle cx="540.8" cy="34.9" r="1.78" fill="#F4EEE3" opacity="0.66"/>
<circle cx="731.0" cy="207.3" r="1.18" fill="#F4EEE3" opacity="0.68"/>
<circle cx="342.9" cy="343.2" r="1.79" fill="#F4EEE3" opacity="0.65"/>
<circle cx="270.6" cy="413.1" r="1.76" fill="#F4EEE3" opacity="0.77"/>
<circle cx="815.0" cy="45.1" r="1.29" fill="#F4EEE3" opacity="0.81"/>
<circle cx="796.1" cy="110.8" r="1.39" fill="#F4EEE3" opacity="0.4"/>
<circle cx="929.9" cy="394.0" r="0.51" fill="#F4EEE3" opacity="0.87"/>
<circle cx="273.2" cy="56.8" r="1.22" fill="#F4EEE3" opacity="0.35"/>
<circle cx="134.5" cy="63.9" r="1.35" fill="#F4EEE3" opacity="0.58"/>
<circle cx="1052.2" cy="12.7" r="1.19" fill="#F4EEE3" opacity="0.43"/>
<circle cx="838.7" cy="277.3" r="1.12" fill="#F4EEE3" opacity="0.55"/>
<circle cx="91.4" cy="237.5" r="1.82" fill="#F4EEE3" opacity="0.64"/>
<circle cx="770.9" cy="143.2" r="0.9" fill="#F4EEE3" opacity="0.68"/>
<circle cx="1045.0" cy="322.0" r="1.09" fill="#F4EEE3" opacity="0.87"/>
<circle cx="800.2" cy="246.9" r="1.4" fill="#F4EEE3" opacity="0.63"/>
<circle cx="219.1" cy="400.9" r="1.27" fill="#F4EEE3" opacity="0.49"/>
<circle cx="1025.3" cy="225.9" r="1.27" fill="#F4EEE3" opacity="0.76"/>
<circle cx="794.1" cy="127.1" r="1.73" fill="#F4EEE3" opacity="0.6"/>
<circle cx="1130.3" cy="401.2" r="0.93" fill="#F4EEE3" opacity="0.49"/>
<circle cx="913.1" cy="23.9" r="1.78" fill="#F4EEE3" opacity="0.86"/>
<circle cx="206.5" cy="332.7" r="1.43" fill="#F4EEE3" opacity="0.61"/>
<circle cx="437.8" cy="179.2" r="1.51" fill="#F4EEE3" opacity="0.74"/>
<circle cx="841.6" cy="170.6" r="1.24" fill="#F4EEE3" opacity="0.63"/>
<circle cx="770.8" cy="59.5" r="0.63" fill="#F4EEE3" opacity="0.7"/>
<circle cx="1475.0" cy="189.2" r="1.62" fill="#F4EEE3" opacity="0.69"/>
<circle cx="944.1" cy="281.3" r="1.28" fill="#F4EEE3" opacity="0.71"/>
<circle cx="1020.3" cy="181.6" r="0.95" fill="#F4EEE3" opacity="0.32"/>
<circle cx="1175.1" cy="46.8" r="1.4" fill="#F4EEE3" opacity="0.38"/>
<circle cx="1354.1" cy="391.1" r="0.53" fill="#F4EEE3" opacity="0.55"/>
<circle cx="1088.3" cy="314.3" r="1.01" fill="#F4EEE3" opacity="0.72"/>
<circle cx="1271.5" cy="206.4" r="0.96" fill="#F4EEE3" opacity="0.48"/>
<circle cx="604.8" cy="115.3" r="0.61" fill="#F4EEE3" opacity="0.82"/>
<circle cx="1108.2" cy="73.2" r="0.95" fill="#F4EEE3" opacity="0.75"/>
<circle cx="297.5" cy="283.5" r="1.94" fill="#F4EEE3" opacity="0.42"/>
<circle cx="429.6" cy="328.0" r="1.64" fill="#F4EEE3" opacity="0.34"/>
<circle cx="1213.2" cy="332.2" r="0.89" fill="#F4EEE3" opacity="0.47"/>
<circle cx="1586.5" cy="313.0" r="1.46" fill="#F4EEE3" opacity="0.87"/>
<circle cx="961.8" cy="225.1" r="0.75" fill="#F4EEE3" opacity="0.39"/>
<circle cx="1536.8" cy="287.2" r="0.94" fill="#F4EEE3" opacity="0.52"/>
<circle cx="471.8" cy="329.9" r="1.14" fill="#F4EEE3" opacity="0.66"/>
<circle cx="734.8" cy="261.0" r="1.07" fill="#F4EEE3" opacity="0.39"/>
<circle cx="612.2" cy="392.8" r="1.24" fill="#F4EEE3" opacity="0.35"/>
<circle cx="286.7" cy="369.1" r="1.11" fill="#F4EEE3" opacity="0.45"/>
<circle cx="1481.8" cy="51.3" r="1.22" fill="#F4EEE3" opacity="0.42"/>
<circle cx="172.8" cy="264.3" r="1.92" fill="#F4EEE3" opacity="0.61"/>
<circle cx="1164.6" cy="46.0" r="1.49" fill="#F4EEE3" opacity="0.89"/>
<circle cx="136.2" cy="50.4" r="1.32" fill="#F4EEE3" opacity="0.51"/>
<circle cx="351.9" cy="356.3" r="1.59" fill="#E6A12B" opacity="0.75"/>
<circle cx="38.8" cy="234.8" r="0.91" fill="#E6A12B" opacity="0.83"/>
<circle cx="31.4" cy="293.2" r="1.5" fill="#F4EEE3" opacity="0.71"/>
<circle cx="1282.9" cy="284.1" r="1.88" fill="#F4EEE3" opacity="0.83"/>
<circle cx="242.6" cy="131.2" r="0.99" fill="#F4EEE3" opacity="0.31"/>
<circle cx="1300.6" cy="395.2" r="1.89" fill="#F4EEE3" opacity="0.48"/>
<circle cx="1499.0" cy="82.8" r="1.42" fill="#F4EEE3" opacity="0.88"/>
<circle cx="309.3" cy="189.8" r="1.86" fill="#F4EEE3" opacity="0.6"/>
<circle cx="877.3" cy="391.3" r="1.1" fill="#F4EEE3" opacity="0.46"/>
<circle cx="1133.7" cy="206.8" r="1.83" fill="#F4EEE3" opacity="0.37"/>
<circle cx="372.4" cy="26.1" r="0.64" fill="#F4EEE3" opacity="0.53"/>
<circle cx="494.7" cy="316.5" r="0.78" fill="#F4EEE3" opacity="0.71"/>
<circle cx="320.2" cy="271.6" r="1.73" fill="#F4EEE3" opacity="0.54"/>
<circle cx="565.1" cy="94.4" r="1.96" fill="#E6A12B" opacity="0.76"/>
<circle cx="286.1" cy="205.9" r="1.03" fill="#F4EEE3" opacity="0.68"/>
<circle cx="791.9" cy="312.0" r="1.26" fill="#F4EEE3" opacity="0.85"/>
<circle cx="1020.8" cy="10.3" r="1.45" fill="#F4EEE3" opacity="0.74"/>
<circle cx="385.0" cy="94.2" r="1.98" fill="#F4EEE3" opacity="0.41"/>
<circle cx="1082.1" cy="363.2" r="0.54" fill="#F4EEE3" opacity="0.73"/>
<circle cx="272.7" cy="228.1" r="0.72" fill="#F4EEE3" opacity="0.52"/>
<circle cx="924.6" cy="16.6" r="0.77" fill="#F4EEE3" opacity="0.55"/>
<circle cx="1324.2" cy="40.5" r="1.18" fill="#E6A12B" opacity="0.85"/>
<circle cx="54.3" cy="363.5" r="1.41" fill="#CE4A2B" opacity="0.75"/>
<circle cx="438.3" cy="7.8" r="0.51" fill="#F4EEE3" opacity="0.56"/>
<circle cx="51.5" cy="217.9" r="1.82" fill="#F4EEE3" opacity="0.65"/>
<circle cx="498.8" cy="31.7" r="0.63" fill="#F4EEE3" opacity="0.88"/>
<circle cx="659.4" cy="103.0" r="1.33" fill="#F4EEE3" opacity="0.49"/>
<circle cx="597.3" cy="91.4" r="1.09" fill="#F4EEE3" opacity="0.78"/>
<circle cx="139.7" cy="106.8" r="1.52" fill="#F4EEE3" opacity="0.35"/>
<circle cx="121.2" cy="337.1" r="1.86" fill="#F4EEE3" opacity="0.38"/>
<circle cx="1494.9" cy="115.4" r="0.6" fill="#F4EEE3" opacity="0.69"/>
<circle cx="710.2" cy="204.3" r="1.2" fill="#F4EEE3" opacity="0.42"/>
<circle cx="557.1" cy="325.5" r="0.71" fill="#F4EEE3" opacity="0.89"/>
<circle cx="1277.7" cy="324.8" r="1.98" fill="#F4EEE3" opacity="0.44"/>
<circle cx="743.6" cy="359.0" r="1.29" fill="#CE4A2B" opacity="0.55"/>
<circle cx="500.4" cy="103.1" r="1.02" fill="#F4EEE3" opacity="0.86"/>
<circle cx="79.1" cy="335.2" r="0.86" fill="#F4EEE3" opacity="0.67"/>
<circle cx="373.3" cy="186.5" r="1.91" fill="#F4EEE3" opacity="0.77"/>
<circle cx="84.5" cy="124.5" r="1.41" fill="#F4EEE3" opacity="0.35"/>
<circle cx="1232.2" cy="181.5" r="1.86" fill="#F4EEE3" opacity="0.82"/>
<circle cx="1332.7" cy="141.2" r="1.7" fill="#F4EEE3" opacity="0.54"/>
<circle cx="1042.6" cy="5.1" r="0.51" fill="#CE4A2B" opacity="0.6"/>
<circle cx="70.6" cy="318.1" r="0.61" fill="#F4EEE3" opacity="0.37"/>
<circle cx="555.0" cy="258.1" r="0.78" fill="#F4EEE3" opacity="0.51"/>
<circle cx="308.1" cy="199.3" r="1.43" fill="#F4EEE3" opacity="0.47"/>
<circle cx="1527.5" cy="360.6" r="1.72" fill="#F4EEE3" opacity="0.54"/>
<circle cx="1373.6" cy="152.6" r="0.78" fill="#F4EEE3" opacity="0.72"/>
<circle cx="1214.4" cy="322.7" r="1.31" fill="#F4EEE3" opacity="0.6"/>
<circle cx="936.3" cy="343.7" r="0.84" fill="#F4EEE3" opacity="0.79"/>
<circle cx="721.9" cy="279.2" r="1.81" fill="#F4EEE3" opacity="0.64"/>
<circle cx="694.8" cy="410.1" r="1.77" fill="#CE4A2B" opacity="0.45"/>
<circle cx="30.2" cy="302.7" r="1.08" fill="#F4EEE3" opacity="0.58"/>
<circle cx="333.1" cy="253.4" r="1.0" fill="#F4EEE3" opacity="0.3"/>
<circle cx="482.5" cy="77.1" r="1.44" fill="#F4EEE3" opacity="0.66"/>
<circle cx="542.6" cy="272.3" r="1.06" fill="#F4EEE3" opacity="0.55"/>
<circle cx="340.6" cy="110.0" r="1.48" fill="#F4EEE3" opacity="0.36"/>
<circle cx="711.0" cy="197.5" r="1.93" fill="#F4EEE3" opacity="0.69"/>
<circle cx="1006.9" cy="287.5" r="0.91" fill="#F4EEE3" opacity="0.75"/>
<circle cx="877.8" cy="303.6" r="1.88" fill="#F4EEE3" opacity="0.88"/>
<circle cx="1513.6" cy="386.9" r="1.88" fill="#F4EEE3" opacity="0.58"/>
<circle cx="1556.4" cy="383.3" r="0.76" fill="#F4EEE3" opacity="0.63"/>
<circle cx="477.9" cy="30.1" r="0.81" fill="#F4EEE3" opacity="0.69"/>
<circle cx="1423.6" cy="260.7" r="1.41" fill="#F4EEE3" opacity="0.39"/>
<circle cx="724.4" cy="175.2" r="0.74" fill="#CE4A2B" opacity="0.85"/>
<circle cx="874.3" cy="163.5" r="1.4" fill="#F4EEE3" opacity="0.44"/>
<circle cx="574.3" cy="273.3" r="0.64" fill="#F4EEE3" opacity="0.77"/>
<circle cx="244.3" cy="117.6" r="0.95" fill="#F4EEE3" opacity="0.84"/>
<circle cx="600.3" cy="319.2" r="0.79" fill="#F4EEE3" opacity="0.8"/>
<circle cx="699.1" cy="40.3" r="1.21" fill="#F4EEE3" opacity="0.56"/>
<circle cx="249.3" cy="245.5" r="1.54" fill="#F4EEE3" opacity="0.67"/>
<circle cx="1389.3" cy="112.7" r="0.59" fill="#F4EEE3" opacity="0.61"/>
<circle cx="331.3" cy="16.0" r="1.73" fill="#F4EEE3" opacity="0.41"/>
<circle cx="872.9" cy="174.3" r="1.13" fill="#F4EEE3" opacity="0.38"/>
<circle cx="174.6" cy="418.0" r="0.92" fill="#F4EEE3" opacity="0.51"/>
<circle cx="1204.2" cy="235.5" r="0.82" fill="#F4EEE3" opacity="0.38"/>
<circle cx="648.3" cy="358.6" r="1.34" fill="#F4EEE3" opacity="0.62"/>
<circle cx="289.5" cy="11.4" r="1.92" fill="#F4EEE3" opacity="0.56"/>
<circle cx="251.2" cy="314.2" r="1.63" fill="#F4EEE3" opacity="0.52"/>
<circle cx="1308.9" cy="413.6" r="0.8" fill="#F4EEE3" opacity="0.85"/>
<circle cx="267.4" cy="186.6" r="0.71" fill="#F4EEE3" opacity="0.81"/>
<circle cx="805.7" cy="287.1" r="1.26" fill="#E6A12B" opacity="0.87"/>
<circle cx="1388.0" cy="374.5" r="1.12" fill="#F4EEE3" opacity="0.5"/>
<circle cx="241.5" cy="139.4" r="1.91" fill="#F4EEE3" opacity="0.71"/>
<circle cx="1400.8" cy="189.0" r="1.35" fill="#F4EEE3" opacity="0.89"/>
<circle cx="1019.0" cy="276.1" r="0.94" fill="#F4EEE3" opacity="0.84"/>
<circle cx="345.3" cy="324.2" r="1.15" fill="#F4EEE3" opacity="0.31"/>
<circle cx="570.1" cy="55.0" r="0.52" fill="#F4EEE3" opacity="0.62"/>
<circle cx="335.1" cy="153.4" r="1.89" fill="#F4EEE3" opacity="0.71"/>
<circle cx="712.1" cy="356.6" r="1.55" fill="#CE4A2B" opacity="0.86"/>
<circle cx="46.7" cy="339.6" r="1.89" fill="#F4EEE3" opacity="0.71"/>
<circle cx="1069.8" cy="41.5" r="1.08" fill="#F4EEE3" opacity="0.76"/>
<circle cx="1475.2" cy="271.5" r="1.74" fill="#F4EEE3" opacity="0.61"/>
<circle cx="1564.1" cy="238.6" r="1.09" fill="#F4EEE3" opacity="0.63"/>
<circle cx="156.3" cy="394.6" r="1.64" fill="#F4EEE3" opacity="0.45"/>
<circle cx="1167.9" cy="103.9" r="1.84" fill="#F4EEE3" opacity="0.8"/>
<circle cx="455.6" cy="206.6" r="1.25" fill="#CE4A2B" opacity="0.4"/>
<circle cx="928.0" cy="408.9" r="0.7" fill="#CE4A2B" opacity="0.41"/>
<circle cx="1523.5" cy="308.1" r="1.98" fill="#F4EEE3" opacity="0.89"/>
<circle cx="54.4" cy="278.5" r="0.99" fill="#F4EEE3" opacity="0.7"/>
<circle cx="318.3" cy="119.2" r="1.38" fill="#F4EEE3" opacity="0.71"/>
<circle cx="1075.5" cy="80.3" r="0.79" fill="#F4EEE3" opacity="0.34"/>
<circle cx="494.0" cy="69.7" r="1.93" fill="#F4EEE3" opacity="0.35"/>
<circle cx="60.3" cy="399.6" r="0.81" fill="#F4EEE3" opacity="0.79"/>
<circle cx="1557.1" cy="294.3" r="1.38" fill="#CE4A2B" opacity="0.38"/>
<circle cx="307.7" cy="34.8" r="1.2" fill="#F4EEE3" opacity="0.63"/>
<circle cx="287.6" cy="26.4" r="0.61" fill="#F4EEE3" opacity="0.7"/>
<circle cx="1501.6" cy="146.1" r="0.89" fill="#F4EEE3" opacity="0.46"/>
<circle cx="1228.8" cy="208.6" r="1.93" fill="#E6A12B" opacity="0.37"/>
<circle cx="1133.4" cy="293.1" r="0.9" fill="#F4EEE3" opacity="0.49"/>
<circle cx="1042.5" cy="90.1" r="0.93" fill="#F4EEE3" opacity="0.65"/>
<circle cx="190.7" cy="206.7" r="1.23" fill="#F4EEE3" opacity="0.82"/>
<circle cx="1131.0" cy="395.8" r="1.82" fill="#F4EEE3" opacity="0.82"/>
<circle cx="312.9" cy="161.3" r="1.64" fill="#F4EEE3" opacity="0.39"/>
<circle cx="526.6" cy="64.0" r="0.75" fill="#F4EEE3" opacity="0.84"/>
<circle cx="413.8" cy="369.3" r="1.98" fill="#F4EEE3" opacity="0.53"/>
<circle cx="1046.4" cy="394.7" r="1.63" fill="#F4EEE3" opacity="0.32"/>
<circle cx="769.9" cy="234.9" r="0.59" fill="#F4EEE3" opacity="0.47"/>
<circle cx="715.2" cy="248.5" r="1.52" fill="#F4EEE3" opacity="0.87"/>
<circle cx="176.1" cy="405.8" r="1.04" fill="#F4EEE3" opacity="0.51"/>
<circle cx="1053.9" cy="335.0" r="0.88" fill="#F4EEE3" opacity="0.37"/>
<circle cx="568.4" cy="68.6" r="0.55" fill="#F4EEE3" opacity="0.69"/>
<circle cx="1035.5" cy="229.4" r="1.49" fill="#F4EEE3" opacity="0.39"/>
<circle cx="1512.1" cy="399.1" r="1.76" fill="#F4EEE3" opacity="0.59"/>
<circle cx="106.7" cy="283.9" r="0.7" fill="#F4EEE3" opacity="0.64"/>
<circle cx="557.8" cy="320.0" r="1.6" fill="#E6A12B" opacity="0.62"/>
<circle cx="677.6" cy="42.7" r="1.84" fill="#F4EEE3" opacity="0.57"/>
<circle cx="1063.6" cy="90.3" r="0.6" fill="#F4EEE3" opacity="0.78"/>
<circle cx="476.4" cy="293.2" r="1.5" fill="#F4EEE3" opacity="0.65"/>
<circle cx="283.9" cy="139.9" r="1.25" fill="#F4EEE3" opacity="0.36"/>
<circle cx="372.4" cy="362.0" r="1.87" fill="#F4EEE3" opacity="0.54"/>
<circle cx="924.7" cy="183.8" r="1.31" fill="#F4EEE3" opacity="0.53"/>
<circle cx="464.2" cy="306.0" r="1.62" fill="#E6A12B" opacity="0.62"/>
<circle cx="1366.3" cy="294.6" r="1.64" fill="#F4EEE3" opacity="0.59"/>
<circle cx="435.9" cy="26.8" r="1.16" fill="#F4EEE3" opacity="0.3"/>
<circle cx="1352.0" cy="156.4" r="1.56" fill="#F4EEE3" opacity="0.8"/>
<circle cx="978.8" cy="342.9" r="1.53" fill="#F4EEE3" opacity="0.37"/>
<circle cx="743.4" cy="276.8" r="1.17" fill="#F4EEE3" opacity="0.63"/>
<circle cx="1480.5" cy="145.8" r="1.21" fill="#F4EEE3" opacity="0.34"/>
<circle cx="943.1" cy="122.2" r="1.67" fill="#E6A12B" opacity="0.54"/>
<circle cx="380.5" cy="129.5" r="1.47" fill="#F4EEE3" opacity="0.35"/>
<circle cx="983.0" cy="309.0" r="0.69" fill="#F4EEE3" opacity="0.5"/>
<circle cx="1392.5" cy="86.9" r="0.67" fill="#F4EEE3" opacity="0.53"/>
<circle cx="1080.6" cy="39.6" r="0.69" fill="#F4EEE3" opacity="0.72"/>
<circle cx="1593.0" cy="261.4" r="1.63" fill="#F4EEE3" opacity="0.72"/>
<circle cx="860.5" cy="272.1" r="1.68" fill="#F4EEE3" opacity="0.41"/>
<circle cx="1377.0" cy="41.8" r="1.94" fill="#F4EEE3" opacity="0.59"/>
<circle cx="243.7" cy="38.1" r="1.15" fill="#E6A12B" opacity="0.46"/>
<circle cx="1080.4" cy="293.2" r="1.8" fill="#F4EEE3" opacity="0.82"/>
<circle cx="1403.1" cy="171.4" r="0.85" fill="#F4EEE3" opacity="0.61"/>
<circle cx="268.5" cy="93.5" r="0.87" fill="#F4EEE3" opacity="0.36"/>
<circle cx="585.4" cy="185.1" r="1.17" fill="#F4EEE3" opacity="0.61"/>
<circle cx="1292.1" cy="43.5" r="0.56" fill="#F4EEE3" opacity="0.83"/>
<circle cx="200.7" cy="43.0" r="0.92" fill="#F4EEE3" opacity="0.48"/>
<circle cx="1109.0" cy="402.3" r="1.42" fill="#F4EEE3" opacity="0.43"/>
<circle cx="1177.3" cy="112.8" r="1.17" fill="#F4EEE3" opacity="0.7"/>
<circle cx="173.7" cy="341.1" r="1.42" fill="#F4EEE3" opacity="0.86"/>
<circle cx="1184.4" cy="140.8" r="1.16" fill="#F4EEE3" opacity="0.34"/>
<circle cx="1192.3" cy="414.2" r="1.33" fill="#F4EEE3" opacity="0.86"/>
<circle cx="320.7" cy="183.9" r="1.0" fill="#F4EEE3" opacity="0.36"/>
<circle cx="945.0" cy="274.5" r="0.52" fill="#F4EEE3" opacity="0.37"/>
<circle cx="1470.1" cy="143.6" r="1.15" fill="#F4EEE3" opacity="0.78"/>
<circle cx="775.1" cy="25.6" r="1.29" fill="#CE4A2B" opacity="0.82"/>
<circle cx="524.1" cy="418.9" r="1.12" fill="#F4EEE3" opacity="0.59"/>
<circle cx="544.3" cy="175.0" r="0.75" fill="#F4EEE3" opacity="0.49"/>
<circle cx="70.3" cy="320.8" r="0.91" fill="#CE4A2B" opacity="0.5"/>
<circle cx="55.1" cy="189.4" r="1.6" fill="#F4EEE3" opacity="0.44"/>
<circle cx="148.1" cy="123.9" r="1.77" fill="#F4EEE3" opacity="0.65"/>
<circle cx="1539.5" cy="265.5" r="1.49" fill="#F4EEE3" opacity="0.64"/>
<circle cx="1271.2" cy="40.5" r="0.58" fill="#F4EEE3" opacity="0.57"/>
<circle cx="414.9" cy="25.2" r="1.33" fill="#E6A12B" opacity="0.71"/>
<circle cx="516.2" cy="314.1" r="1.64" fill="#F4EEE3" opacity="0.7"/>
<circle cx="1105.9" cy="7.2" r="1.18" fill="#F4EEE3" opacity="0.44"/>
<circle cx="1478.0" cy="333.4" r="1.05" fill="#F4EEE3" opacity="0.72"/>
<circle cx="333.6" cy="82.0" r="1.5" fill="#F4EEE3" opacity="0.73"/>
<circle cx="1292.4" cy="124.4" r="0.52" fill="#F4EEE3" opacity="0.68"/>
<circle cx="270.7" cy="244.4" r="1.06" fill="#E6A12B" opacity="0.73"/>
<circle cx="1125.0" cy="23.8" r="1.19" fill="#F4EEE3" opacity="0.77"/>
<circle cx="364.1" cy="7.6" r="1.74" fill="#F4EEE3" opacity="0.76"/>
<circle cx="126.3" cy="212.7" r="1.49" fill="#F4EEE3" opacity="0.78"/>
<circle cx="1423.9" cy="174.3" r="0.83" fill="#F4EEE3" opacity="0.87"/></g>

  <!-- floor base -->
  <rect x="0" y="456" width="1600" height="304" fill="#0E1512"/>
  <g><line x1="800.0" y1="456" x2="-1888.0" y2="760" stroke="#F4EEE3" stroke-opacity="0.10" stroke-width="1"/>
<line x1="800.0" y1="456" x2="-1696.0" y2="760" stroke="#F4EEE3" stroke-opacity="0.10" stroke-width="1"/>
<line x1="800.0" y1="456" x2="-1504.0" y2="760" stroke="#F4EEE3" stroke-opacity="0.10" stroke-width="1"/>
<line x1="800.0" y1="456" x2="-1312.0" y2="760" stroke="#F4EEE3" stroke-opacity="0.10" stroke-width="1"/>
<line x1="800.0" y1="456" x2="-1120.0" y2="760" stroke="#F4EEE3" stroke-opacity="0.10" stroke-width="1"/>
<line x1="800.0" y1="456" x2="-928.0" y2="760" stroke="#F4EEE3" stroke-opacity="0.10" stroke-width="1"/>
<line x1="800.0" y1="456" x2="-736.0" y2="760" stroke="#F4EEE3" stroke-opacity="0.10" stroke-width="1"/>
<line x1="800.0" y1="456" x2="-544.0" y2="760" stroke="#F4EEE3" stroke-opacity="0.10" stroke-width="1"/>
<line x1="800.0" y1="456" x2="-352.0" y2="760" stroke="#F4EEE3" stroke-opacity="0.10" stroke-width="1"/>
<line x1="800.0" y1="456" x2="-160.0" y2="760" stroke="#F4EEE3" stroke-opacity="0.10" stroke-width="1"/>
<line x1="800.0" y1="456" x2="32.0" y2="760" stroke="#F4EEE3" stroke-opacity="0.10" stroke-width="1"/>
<line x1="800.0" y1="456" x2="224.0" y2="760" stroke="#F4EEE3" stroke-opacity="0.10" stroke-width="1"/>
<line x1="800.0" y1="456" x2="416.0" y2="760" stroke="#F4EEE3" stroke-opacity="0.10" stroke-width="1"/>
<line x1="800.0" y1="456" x2="608.0" y2="760" stroke="#F4EEE3" stroke-opacity="0.10" stroke-width="1"/>
<line x1="800.0" y1="456" x2="800.0" y2="760" stroke="#F4EEE3" stroke-opacity="0.10" stroke-width="1"/>
<line x1="800.0" y1="456" x2="992.0" y2="760" stroke="#F4EEE3" stroke-opacity="0.10" stroke-width="1"/>
<line x1="800.0" y1="456" x2="1184.0" y2="760" stroke="#F4EEE3" stroke-opacity="0.10" stroke-width="1"/>
<line x1="800.0" y1="456" x2="1376.0" y2="760" stroke="#F4EEE3" stroke-opacity="0.10" stroke-width="1"/>
<line x1="800.0" y1="456" x2="1568.0" y2="760" stroke="#F4EEE3" stroke-opacity="0.10" stroke-width="1"/>
<line x1="800.0" y1="456" x2="1760.0" y2="760" stroke="#F4EEE3" stroke-opacity="0.10" stroke-width="1"/>
<line x1="800.0" y1="456" x2="1952.0" y2="760" stroke="#F4EEE3" stroke-opacity="0.10" stroke-width="1"/>
<line x1="800.0" y1="456" x2="2144.0" y2="760" stroke="#F4EEE3" stroke-opacity="0.10" stroke-width="1"/>
<line x1="800.0" y1="456" x2="2336.0" y2="760" stroke="#F4EEE3" stroke-opacity="0.10" stroke-width="1"/>
<line x1="800.0" y1="456" x2="2528.0" y2="760" stroke="#F4EEE3" stroke-opacity="0.10" stroke-width="1"/>
<line x1="800.0" y1="456" x2="2720.0" y2="760" stroke="#F4EEE3" stroke-opacity="0.10" stroke-width="1"/>
<line x1="800.0" y1="456" x2="2912.0" y2="760" stroke="#F4EEE3" stroke-opacity="0.10" stroke-width="1"/>
<line x1="800.0" y1="456" x2="3104.0" y2="760" stroke="#F4EEE3" stroke-opacity="0.10" stroke-width="1"/>
<line x1="800.0" y1="456" x2="3296.0" y2="760" stroke="#F4EEE3" stroke-opacity="0.10" stroke-width="1"/>
<line x1="800.0" y1="456" x2="3488.0" y2="760" stroke="#F4EEE3" stroke-opacity="0.10" stroke-width="1"/>
<line x1="0" y1="457.6" x2="1600" y2="457.6" stroke="#F4EEE3" stroke-opacity="0.151" stroke-width="1"/>
<line x1="0" y1="462.2" x2="1600" y2="462.2" stroke="#F4EEE3" stroke-opacity="0.141" stroke-width="1"/>
<line x1="0" y1="470.0" x2="1600" y2="470.0" stroke="#F4EEE3" stroke-opacity="0.132" stroke-width="1"/>
<line x1="0" y1="480.8" x2="1600" y2="480.8" stroke="#F4EEE3" stroke-opacity="0.123" stroke-width="1"/>
<line x1="0" y1="494.8" x2="1600" y2="494.8" stroke="#F4EEE3" stroke-opacity="0.114" stroke-width="1"/>
<line x1="0" y1="511.8" x2="1600" y2="511.8" stroke="#F4EEE3" stroke-opacity="0.104" stroke-width="1"/>
<line x1="0" y1="532.0" x2="1600" y2="532.0" stroke="#F4EEE3" stroke-opacity="0.095" stroke-width="1"/>
<line x1="0" y1="555.3" x2="1600" y2="555.3" stroke="#F4EEE3" stroke-opacity="0.086" stroke-width="1"/>
<line x1="0" y1="581.6" x2="1600" y2="581.6" stroke="#F4EEE3" stroke-opacity="0.076" stroke-width="1"/>
<line x1="0" y1="611.1" x2="1600" y2="611.1" stroke="#F4EEE3" stroke-opacity="0.067" stroke-width="1"/>
<line x1="0" y1="643.7" x2="1600" y2="643.7" stroke="#F4EEE3" stroke-opacity="0.058" stroke-width="1"/>
<line x1="0" y1="679.3" x2="1600" y2="679.3" stroke="#F4EEE3" stroke-opacity="0.049" stroke-width="1"/>
<line x1="0" y1="718.1" x2="1600" y2="718.1" stroke="#F4EEE3" stroke-opacity="0.039" stroke-width="1"/>
<line x1="0" y1="760.0" x2="1600" y2="760.0" stroke="#F4EEE3" stroke-opacity="0.03" stroke-width="1"/></g>

  <!-- horizon glow -->
  <ellipse cx="800" cy="456" rx="800" ry="258" fill="url(#glow)" filter="url(#soft)"/>
  <ellipse cx="800" cy="456" rx="448" ry="121" fill="url(#glow)"/>
  <circle cx="800" cy="450" r="58" fill="url(#sun)"/>

  <!-- lone figure stepping forward, silhouette -->
  <g fill="#1D1815" transform="translate(791,552)">
    <circle cx="9" cy="8" r="8"/>
    <path d="M2 20 Q9 15 16 20 L14 52 17 96 11 96 9 60 7 96 1 96 4 52 Z"/>
  </g>

  <rect width="1600" height="760" fill="url(#vig)"/>
</svg>